<?xml version="1.0" encoding="utf-8"?>
<!-- Uploaded to: SVG Repo, www.svgrepo.com, Generator: SVG Repo Mixer Tools -->
<svg fill="#292D32" version="1.1" id="Layer_1" xmlns="http://www.w3.org/2000/svg" xmlns:xlink="http://www.w3.org/1999/xlink" 
	 width="20px" height="20px" viewBox="0 0 256 253" enable-background="new 0 0 256 253" xml:space="preserve">
<path d="M127.925,218.85c28.065,0,51-22.784,51-51s-22.784-51-51-51s-50.849,22.935-50.849,51.151
	C77.075,196.066,99.859,218.85,127.925,218.85z M125.108,172.176c-9.355-3.269-15.189-7.997-15.189-16.396
	c0-7.746,5.13-13.831,14.536-15.743v-8.399h7.041v7.997c5.834,0,10.059,1.207,13.178,2.867l-2.867,10.059
	c-2.314-0.956-6.086-2.565-11.266-2.565c-5.18,0-7.997,2.565-7.997,5.13c0,3.521,3.269,4.879,10.311,7.746
	c9.607,3.521,14.083,8.399,14.083,16.396s-4.879,14.083-15.189,16.396v7.997h-7.041v-7.746c-6.086,0-12.222-1.609-15.189-3.269
	l2.565-10.311c3.269,1.609,8.399,3.521,13.831,3.521c5.834,0,8.701-2.565,8.701-6.086S131.848,174.791,125.108,172.176z M2,69
	c0,13.678,9.625,25.302,22,29.576V233H2v18h252v-18h-22V98.554c12.89-3.945,21.699-15.396,22-29.554v-8H2V69z M65.29,68.346
	c0,6.477,6.755,31.47,31.727,31.47c21.689,0,31.202-19.615,31.202-31.47c0,11.052,7.41,31.447,31.464,31.447
	c21.733,0,31.363-20.999,31.363-31.447c0,14.425,9.726,26.416,22.954,30.154V233H42V98.594C55.402,94.966,65.29,82.895,65.29,68.346
	z M254,54H2l32-32V2h189v20h-0.168L254,54z"/>
</svg>