<?xml version="1.0" encoding="utf-8"?>

<!DOCTYPE svg PUBLIC "-//W3C//DTD SVG 1.1//EN" "http://www.w3.org/Graphics/SVG/1.1/DTD/svg11.dtd">
<!-- Uploaded to: SVG Repo, www.svgrepo.com, Generator: SVG Repo Mixer Tools -->
<svg height="20px" width="20px" version="1.1" id="_x32_" xmlns="http://www.w3.org/2000/svg" xmlns:xlink="http://www.w3.org/1999/xlink" 
	 viewBox="0 0 512 512"  xml:space="preserve">
<style type="text/css">
	.st0{fill:#000000;}
</style>
<g>
	<path class="st0" d="M376.045,261.869c27.901,9.934,56.302-34.608,91.05-106.127c32.594-67.088,45.64-103.261,37.008-128.182
		c-8.616-24.937-34.658-8.238-44.322,3.726c-9.656,11.974-114.333,140.843-127.404,157.435l-65.114,77.939l-52.913-63.329
		c-7.878-9.746-5.372-21.571-3.472-32.938c3.374-20.228,3.112-56.556-20.113-84.417c-23.225-27.844-77.751-75.638-82.96-80.617
		c-5.208-4.979-13.283-7.812-19.867-2.506c-6.585,5.291-3.702,11.596,1.49,18.016l66.515,82.403
		c5.666,7.026,4.75,13.266-0.77,17.739c-5.045,4.061-13.644,4.127-17.64-0.819L68.94,35.217c-5.569-6.912-15.151-6.453-20.752-1.933
		c-5.602,4.521-8.059,13.775-2.49,20.703l68.595,84.974c3.996,4.946,2.112,13.332-2.932,17.394
		c-5.52,4.471-11.826,4.029-17.494-2.981L27.353,70.973c-5.176-6.437-10.728-10.565-17.313-5.258
		c-6.568,5.323-5.487,13.808-1.719,19.95c3.767,6.142,38.982,69.528,61.289,98.11c22.325,28.565,57.769,36.508,78.259,37.475
		c11.514,0.54,23.602,0.573,31.464,10.335l56.59,72.583L112.614,451.767c-4.504,5.388-6.65,12.349-5.962,19.326
		c0.688,6.978,4.136,13.398,9.598,17.788l3.341,2.703c5.454,4.398,12.448,6.429,19.409,5.618c6.969-0.802,13.332-4.356,17.632-9.893
		L267.264,344.37l122.85,157.566c4.308,5.503,10.646,9.074,17.624,9.893c6.96,0.802,13.954-1.229,19.409-5.635l3.341-2.686
		c5.454-4.406,8.91-10.826,9.599-17.788c0.688-6.994-1.474-13.938-5.963-19.327L298.482,304.028l31.816-41.112
		C338.169,253.155,360.534,256.349,376.045,261.869z"/>
</g>
</svg>