<svg 
    xmlns="http://www.w3.org/2000/svg" 
    viewBox="0 0 64 64" 
    width="64" 
    height="64" 
    fill="#6d6d6d">
  <path d="M55.4 26.6L50 16.5c-1.5-3-4.6-5-8-5H22c-3.4 0-6.5 2-8 5l-5.4 10.1C5.8 28.5 4 31.6 4 35v12c0 2.8 2.2 5 5 5h2c1.4 0 2.5-1.1 2.5-2.5V48h37v1.5c0 1.4 1.1 2.5 2.5 2.5h2c2.8 0 5-2.2 5-5V35c0-3.4-1.8-6.5-4.6-8.4zM22 14h20c2.4 0 4.5 1.5 5.3 3.7l3.3 7.3H13.4l3.3-7.3C17.5 15.5 19.6 14 22 14zM12 43.5c-1.9 0-3.5-1.6-3.5-3.5s1.6-3.5 3.5-3.5 3.5 1.6 3.5 3.5-1.6 3.5-3.5 3.5zm40 0c-1.9 0-3.5-1.6-3.5-3.5s1.6-3.5 3.5-3.5 3.5 1.6 3.5 3.5-1.6 3.5-3.5 3.5z"/>
</svg>