<svg width="100" height="100" viewBox="0 0 100 100" xmlns="http://www.w3.org/2000/svg">
  <!-- Gear 1 -->
  <circle cx="30" cy="30" r="10" fill="#e6c200"/>
  <path d="M30 18 v-6 M30 42 v6 M18 30 h-6 M42 30 h6 M22.93 22.93 l-4.24 -4.24 M37.07 37.07 l4.24 4.24 M22.93 37.07 l-4.24 4.24 M37.07 22.93 l4.24 -4.24"
        stroke="#e6c200" stroke-width="7" stroke-linecap="round"/>

  <!-- Gear 2 -->
  <circle cx="70" cy="70" r="10" fill="#e6c200"/>
  <path d="M70 58 v-6 M70 82 v6 M58 70 h-6 M82 70 h6 M62.93 62.93 l-4.24 -4.24 M77.07 77.07 l4.24 4.24 M62.93 77.07 l-4.24 4.24 M77.07 62.93 l4.24 -4.24"
        stroke="#e6c200" stroke-width="7" stroke-linecap="round"/>

  <!-- Gear 3 -->
  <circle cx="50" cy="50" r="10" fill=""/>
  <path d="M50 38 v-6 M50 62 v6 M38 50 h-6 M62 50 h6 M42.93 42.93 l-4.24 -4.24 M57.07 57.07 l4.24 4.24 M42.93 57.07 l-4.24 4.24 M57.07 42.93 l4.24 -4.24"
        stroke="#e6c200" stroke-width="7" stroke-linecap="round"/>
</svg>
