<svg xmlns="http://www.w3.org/2000/svg" viewBox="0 0 32 32" width="32" height="32">
  <path fill="#D9D9D9" d="M16 0C7.164 0 0 7.163 0 16c0 2.946.8 5.678 2.188 8.063L.156 32l8.188-2.125A15.918 15.918 0 0 0 16 32c8.837 0 16-7.163 16-16S24.837 0 16 0zm7.65 23.65c-.338.954-1.664 1.592-2.45 1.61-.632.014-1.388.021-2.217-.334-1.95-.813-3.814-2.184-5.558-3.96-1.745-1.776-3.066-3.696-3.865-5.734-.325-.82-.21-1.637.075-2.185.148-.292.656-.95.868-1.2.224-.26.371-.262.52-.262h.65c.38 0 .518.027.746.58.292.698.99 2.26 1.076 2.424.086.165.133.363.021.584-.11.222-.17.361-.338.555-.17.196-.338.428-.484.578-.145.15-.295.314-.123.605.17.29.746 1.228 1.604 2.002 1.104.996 2.043 1.32 2.331 1.465.289.145.459.126.628-.075.17-.196.726-.854.924-1.15.195-.295.392-.25.653-.145.262.105 1.663.784 1.95.927.289.145.481.21.554.325.073.114.073.662-.266 1.616z"/>
</svg>